<?xml version="1.0" encoding="utf-8"?>
<!-- Generator: Adobe Illustrator 16.0.0, SVG Export Plug-In . SVG Version: 6.00 Build 0)  -->
<!DOCTYPE svg PUBLIC "-//W3C//DTD SVG 1.1//EN" "http://www.w3.org/Graphics/SVG/1.1/DTD/svg11.dtd">
<svg version="1.1" id="圖層_1" xmlns="http://www.w3.org/2000/svg" xmlns:xlink="http://www.w3.org/1999/xlink" x="0px" y="0px"
	 width="30px" height="30px" viewBox="0 0 30 30" enable-background="new 0 0 30 30" xml:space="preserve">
<g>
	<g id="XMLID_207_" opacity="0.7">
		<g>
			<g id="XMLID_329_">
				<path id="XMLID_331_" fill="#9FA0A0" d="M4.532,23.576c0.407,0.341,1.661,0.488,1.661,0.488
					c-0.963-0.651-1.572-2.319-1.572-2.319c0.146,0.081,0.945,0.114,0.945,0.114c-0.398-0.326-0.929-1.123-0.929-1.123
					c0.22,0.105,0.807,0.082,0.807,0.082c-0.603-0.375-1.16-1.238-1.16-1.238c0.159,0.115,0.696,0.123,0.696,0.123
					c-0.488-0.383-0.769-0.943-0.769-0.943c0.094,0.073,0.623,0.113,0.623,0.113c-0.276-0.179-0.438-0.805-0.438-0.805
					c0.073,0.048,0.287,0,0.287,0c-0.156-0.122-0.493-0.669-0.493-0.669c0.122,0.075,0.604,0.108,0.604,0.108
					c-0.187-0.173-0.527-0.602-0.527-0.602c0.097,0.082,0.574,0,0.574,0c-0.472-0.244-1.124-1.937-1.124-1.937
					s-0.653,1.693-1.125,1.937c0,0,0.476,0.082,0.573,0c0,0-0.343,0.429-0.526,0.602c0,0,0.479-0.033,0.601-0.108
					c0,0-0.338,0.548-0.493,0.669c0,0,0.217,0.048,0.288,0c0,0-0.163,0.626-0.438,0.805c0,0,0.529-0.041,0.624-0.113
					c0,0-0.281,0.561-0.77,0.943c0,0,0.536-0.008,0.695-0.123c0,0-0.558,0.863-1.158,1.238c0,0,0.585,0.024,0.804-0.082
					c0,0-0.526,0.796-0.927,1.123c0,0,0.797-0.033,0.944-0.114c0,0-0.61,1.668-1.571,2.319c0,0,1.253-0.146,1.661-0.488
					c0,0-0.616,1.301-1.722,2.017c0,0,1.955-0.245,2.54-1.367c0.586,1.122,2.54,1.367,2.54,1.367
					C5.149,24.877,4.532,23.576,4.532,23.576z"/>
				<polygon id="XMLID_330_" fill="#9FA0A0" points="3.716,22.053 3.252,25.907 4.179,25.907 				"/>
			</g>
			<g id="XMLID_326_">
				<path id="XMLID_328_" fill="#9FA0A0" d="M13.91,21.518c0.645,0.541,2.63,0.773,2.63,0.773c-1.522-1.032-2.487-3.675-2.487-3.675
					c0.231,0.129,1.495,0.181,1.495,0.181c-0.631-0.516-1.471-1.779-1.471-1.779c0.349,0.167,1.278,0.128,1.278,0.128
					c-0.955-0.592-1.838-1.959-1.838-1.959c0.252,0.181,1.104,0.194,1.104,0.194c-0.773-0.607-1.218-1.496-1.218-1.496
					c0.147,0.116,0.985,0.181,0.985,0.181c-0.438-0.284-0.695-1.277-0.695-1.277c0.118,0.077,0.455,0,0.455,0
					c-0.244-0.194-0.779-1.062-0.779-1.062c0.192,0.12,0.954,0.172,0.954,0.172c-0.294-0.275-0.835-0.955-0.835-0.955
					c0.156,0.13,0.91,0,0.91,0c-0.747-0.386-1.781-3.068-1.781-3.068s-1.036,2.682-1.784,3.068c0,0,0.755,0.13,0.908,0
					c0,0-0.541,0.68-0.834,0.955c0,0,0.761-0.052,0.954-0.172c0,0-0.535,0.868-0.781,1.062c0,0,0.338,0.077,0.455,0
					c0,0-0.257,0.993-0.694,1.277c0,0,0.838-0.064,0.986-0.181c0,0-0.444,0.889-1.218,1.496c0,0,0.852-0.013,1.104-0.194
					c0,0-0.884,1.367-1.839,1.959c0,0,0.929,0.04,1.277-0.128c0,0-0.838,1.264-1.471,1.779c0,0,1.264-0.051,1.495-0.181
					c0,0-0.967,2.644-2.488,3.675c0,0,1.986-0.232,2.631-0.773c0,0-0.974,2.063-2.728,3.198c0,0,3.099-0.388,4.026-2.167
					c0.928,1.779,4.025,2.167,4.025,2.167C14.888,23.58,13.91,21.518,13.91,21.518z"/>
				<polygon id="XMLID_327_" fill="#9FA0A0" points="12.615,19.553 11.881,25.663 13.351,25.663 				"/>
			</g>
			<g id="XMLID_323_">
				<path id="XMLID_325_" fill="#9FA0A0" d="M14.389,22.238c0.371,0.313,1.517,0.446,1.517,0.446
					c-0.876-0.595-1.435-2.118-1.435-2.118c0.133,0.074,0.86,0.104,0.86,0.104c-0.363-0.298-0.847-1.026-0.847-1.026
					c0.201,0.097,0.736,0.075,0.736,0.075c-0.551-0.342-1.06-1.13-1.06-1.13c0.146,0.104,0.636,0.113,0.636,0.113
					c-0.445-0.35-0.702-0.862-0.702-0.862c0.087,0.066,0.569,0.104,0.569,0.104c-0.254-0.164-0.401-0.737-0.401-0.737
					c0.069,0.045,0.265,0,0.265,0c-0.142-0.111-0.451-0.611-0.451-0.611c0.11,0.069,0.55,0.099,0.55,0.099
					c-0.168-0.159-0.48-0.55-0.48-0.55c0.088,0.075,0.523,0,0.523,0c-0.43-0.224-1.024-1.769-1.024-1.769s-0.6,1.545-1.03,1.769
					c0,0,0.436,0.075,0.523,0c0,0-0.312,0.391-0.482,0.55c0,0,0.44-0.03,0.553-0.099c0,0-0.311,0.5-0.451,0.611
					c0,0,0.196,0.045,0.263,0c0,0-0.146,0.573-0.402,0.737c0,0,0.484-0.037,0.57-0.104c0,0-0.257,0.513-0.702,0.862
					c0,0,0.49-0.008,0.636-0.113c0,0-0.51,0.789-1.06,1.13c0,0,0.536,0.022,0.737-0.075c0,0-0.484,0.729-0.849,1.026
					c0,0,0.729-0.03,0.861-0.104c0,0-0.556,1.523-1.433,2.118c0,0,1.144-0.134,1.515-0.446c0,0-0.56,1.19-1.572,1.844
					c0,0,1.788-0.223,2.323-1.249c0.534,1.026,2.319,1.249,2.319,1.249C14.953,23.429,14.389,22.238,14.389,22.238z"/>
				<polygon id="XMLID_324_" fill="#9FA0A0" points="13.644,21.161 13.219,24.683 14.065,24.683 				"/>
			</g>
			<g id="XMLID_320_">
				<path id="XMLID_322_" fill="#9FA0A0" d="M9.076,22.377c0.565,0.476,2.311,0.68,2.311,0.68C10.049,22.151,9.2,19.829,9.2,19.829
					c0.204,0.114,1.315,0.159,1.315,0.159c-0.558-0.454-1.293-1.563-1.293-1.563c0.307,0.148,1.123,0.113,1.123,0.113
					c-0.84-0.521-1.614-1.722-1.614-1.722c0.222,0.159,0.968,0.17,0.968,0.17c-0.681-0.533-1.07-1.314-1.07-1.314
					c0.13,0.102,0.867,0.159,0.867,0.159C9.11,15.582,8.885,14.71,8.885,14.71c0.103,0.067,0.4,0,0.4,0
					C9.069,14.54,8.6,13.776,8.6,13.776c0.17,0.106,0.838,0.152,0.838,0.152C9.18,13.687,8.705,13.09,8.705,13.09
					c0.137,0.112,0.799,0,0.799,0c-0.656-0.34-1.563-2.697-1.563-2.697S7.029,12.75,6.372,13.09c0,0,0.663,0.112,0.8,0
					c0,0-0.477,0.597-0.734,0.838c0,0,0.667-0.046,0.836-0.152c0,0-0.469,0.763-0.684,0.934c0,0,0.296,0.067,0.399,0
					c0,0-0.226,0.872-0.61,1.121c0,0,0.736-0.057,0.868-0.159c0,0-0.392,0.782-1.071,1.314c0,0,0.747-0.012,0.968-0.17
					c0,0-0.775,1.201-1.613,1.722c0,0,0.816,0.035,1.122-0.113c0,0-0.735,1.11-1.293,1.563c0,0,1.111-0.045,1.315-0.159
					c0,0-0.849,2.322-2.188,3.229c0,0,1.746-0.204,2.313-0.68c0,0-0.857,1.812-2.398,2.81c0,0,2.724-0.341,3.54-1.903
					c0.813,1.562,3.533,1.903,3.533,1.903C9.937,24.189,9.076,22.377,9.076,22.377z"/>
				<polygon id="XMLID_321_" fill="#9FA0A0" points="7.94,20.601 7.293,25.969 8.585,25.969 				"/>
			</g>
		</g>
	</g>
	<g id="XMLID_130_" opacity="0.7">
		<g>
			<g id="XMLID_341_">
				<path id="XMLID_343_" fill="#9FA0A0" d="M26.188,23.401c-0.408,0.342-1.66,0.488-1.66,0.488c0.961-0.651,1.57-2.318,1.57-2.318
					c-0.147,0.081-0.944,0.114-0.944,0.114c0.399-0.326,0.928-1.123,0.928-1.123c-0.22,0.105-0.806,0.081-0.806,0.081
					c0.603-0.374,1.159-1.237,1.159-1.237c-0.159,0.115-0.696,0.123-0.696,0.123c0.488-0.383,0.769-0.944,0.769-0.944
					c-0.094,0.074-0.623,0.114-0.623,0.114c0.277-0.179,0.439-0.806,0.439-0.806c-0.074,0.049-0.287,0-0.287,0
					c0.155-0.122,0.492-0.67,0.492-0.67c-0.122,0.077-0.602,0.11-0.602,0.11c0.184-0.174,0.526-0.603,0.526-0.603
					c-0.099,0.081-0.575,0-0.575,0c0.472-0.245,1.125-1.937,1.125-1.937s0.651,1.692,1.126,1.937c0,0-0.478,0.081-0.574,0
					c0,0,0.342,0.428,0.527,0.603c0,0-0.481-0.033-0.603-0.11c0,0,0.338,0.548,0.492,0.67c0,0-0.214,0.049-0.287,0
					c0,0,0.162,0.626,0.44,0.806c0,0-0.529-0.041-0.624-0.114c0,0,0.279,0.561,0.768,0.944c0,0-0.538-0.008-0.695-0.123
					c0,0,0.558,0.863,1.159,1.237c0,0-0.586,0.024-0.806-0.081c0,0,0.529,0.797,0.929,1.123c0,0-0.799-0.033-0.944-0.114
					c0,0,0.609,1.667,1.57,2.318c0,0-1.253-0.146-1.661-0.488c0,0,0.616,1.302,1.723,2.018c0,0-1.954-0.244-2.54-1.367
					c-0.586,1.123-2.541,1.367-2.541,1.367C25.569,24.703,26.188,23.401,26.188,23.401z"/>
				<polygon id="XMLID_342_" fill="#9FA0A0" points="27.005,21.879 27.469,25.734 26.54,25.734 				"/>
			</g>
			<g id="XMLID_338_">
				<path id="XMLID_340_" fill="#9FA0A0" d="M16.81,21.343c-0.645,0.542-2.63,0.773-2.63,0.773c1.521-1.031,2.488-3.675,2.488-3.675
					c-0.232,0.129-1.496,0.181-1.496,0.181c0.632-0.516,1.469-1.779,1.469-1.779c-0.346,0.167-1.275,0.129-1.275,0.129
					c0.954-0.593,1.838-1.96,1.838-1.96c-0.252,0.18-1.104,0.193-1.104,0.193c0.773-0.606,1.218-1.496,1.218-1.496
					c-0.148,0.116-0.985,0.18-0.985,0.18c0.438-0.283,0.695-1.276,0.695-1.276c-0.118,0.077-0.456,0-0.456,0
					c0.244-0.194,0.781-1.063,0.781-1.063c-0.194,0.121-0.955,0.173-0.955,0.173c0.293-0.275,0.835-0.955,0.835-0.955
					c-0.156,0.128-0.911,0-0.911,0c0.748-0.387,1.781-3.069,1.781-3.069s1.035,2.682,1.784,3.069c0,0-0.754,0.128-0.908,0
					c0,0,0.542,0.679,0.835,0.955c0,0-0.761-0.052-0.955-0.173c0,0,0.536,0.869,0.782,1.063c0,0-0.339,0.077-0.456,0
					c0,0,0.258,0.993,0.696,1.276c0,0-0.84-0.063-0.988-0.18c0,0,0.444,0.89,1.218,1.496c0,0-0.851-0.013-1.103-0.193
					c0,0,0.884,1.367,1.838,1.96c0,0-0.929,0.039-1.276-0.129c0,0,0.837,1.264,1.471,1.779c0,0-1.265-0.052-1.496-0.181
					c0,0,0.967,2.644,2.488,3.675c0,0-1.985-0.231-2.63-0.773c0,0,0.976,2.063,2.728,3.198c0,0-3.099-0.388-4.027-2.167
					c-0.928,1.779-4.025,2.167-4.025,2.167C15.831,23.407,16.81,21.343,16.81,21.343z"/>
				<polygon id="XMLID_339_" fill="#9FA0A0" points="18.104,19.379 18.84,25.489 17.369,25.489 				"/>
			</g>
			<g id="XMLID_335_">
				<path id="XMLID_337_" fill="#9FA0A0" d="M16.332,22.065c-0.372,0.312-1.518,0.445-1.518,0.445
					c0.878-0.594,1.434-2.118,1.434-2.118c-0.132,0.074-0.859,0.104-0.859,0.104c0.362-0.297,0.848-1.025,0.848-1.025
					c-0.202,0.096-0.738,0.074-0.738,0.074c0.552-0.342,1.062-1.129,1.062-1.129c-0.146,0.104-0.636,0.111-0.636,0.111
					c0.444-0.349,0.701-0.862,0.701-0.862c-0.086,0.066-0.569,0.104-0.569,0.104c0.251-0.164,0.402-0.737,0.402-0.737
					c-0.069,0.045-0.265,0-0.265,0c0.142-0.111,0.451-0.611,0.451-0.611c-0.11,0.069-0.55,0.099-0.55,0.099
					c0.168-0.159,0.479-0.55,0.479-0.55c-0.088,0.074-0.524,0-0.524,0c0.432-0.223,1.026-1.77,1.026-1.77s0.597,1.546,1.029,1.77
					c0,0-0.436,0.074-0.523,0c0,0,0.313,0.391,0.48,0.55c0,0-0.438-0.03-0.55-0.099c0,0,0.309,0.5,0.45,0.611
					c0,0-0.194,0.045-0.262,0c0,0,0.147,0.573,0.401,0.737c0,0-0.485-0.038-0.57-0.104c0,0,0.257,0.513,0.702,0.862
					c0,0-0.49-0.007-0.634-0.111c0,0,0.507,0.787,1.059,1.129c0,0-0.537,0.022-0.737-0.074c0,0,0.483,0.729,0.848,1.025
					c0,0-0.728-0.03-0.862-0.104c0,0,0.559,1.524,1.435,2.118c0,0-1.145-0.133-1.516-0.445c0,0,0.562,1.189,1.572,1.844
					c0,0-1.787-0.224-2.322-1.249c-0.534,1.025-2.319,1.249-2.319,1.249C15.767,23.255,16.332,22.065,16.332,22.065z"/>
				<polygon id="XMLID_336_" fill="#9FA0A0" points="17.077,20.988 17.501,24.51 16.654,24.51 				"/>
			</g>
			<g id="XMLID_332_">
				<path id="XMLID_334_" fill="#9FA0A0" d="M21.645,22.204c-0.565,0.476-2.311,0.68-2.311,0.68
					c1.337-0.905,2.186-3.228,2.186-3.228c-0.204,0.113-1.314,0.158-1.314,0.158c0.557-0.454,1.293-1.563,1.293-1.563
					c-0.307,0.147-1.122,0.113-1.122,0.113c0.838-0.521,1.613-1.722,1.613-1.722c-0.222,0.159-0.968,0.17-0.968,0.17
					c0.68-0.533,1.07-1.314,1.07-1.314c-0.13,0.103-0.866,0.159-0.866,0.159c0.384-0.25,0.609-1.122,0.609-1.122
					c-0.104,0.068-0.4,0-0.4,0c0.215-0.17,0.685-0.932,0.685-0.932c-0.168,0.106-0.836,0.151-0.836,0.151
					c0.257-0.242,0.732-0.838,0.732-0.838c-0.137,0.113-0.8,0-0.8,0c0.657-0.34,1.564-2.696,1.564-2.696s0.91,2.356,1.567,2.696
					c0,0-0.662,0.113-0.799,0c0,0,0.477,0.596,0.734,0.838c0,0-0.668-0.045-0.837-0.151c0,0,0.469,0.762,0.684,0.932
					c0,0-0.295,0.068-0.399,0c0,0,0.225,0.873,0.61,1.122c0,0-0.737-0.057-0.867-0.159c0,0,0.391,0.781,1.07,1.314
					c0,0-0.746-0.011-0.968-0.17c0,0,0.775,1.201,1.613,1.722c0,0-0.815,0.034-1.121-0.113c0,0,0.734,1.109,1.292,1.563
					c0,0-1.111-0.045-1.315-0.158c0,0,0.851,2.323,2.188,3.228c0,0-1.745-0.204-2.312-0.68c0,0,0.857,1.813,2.398,2.809
					c0,0-2.724-0.339-3.539-1.903c-0.815,1.563-3.537,1.903-3.537,1.903C20.785,24.017,21.645,22.204,21.645,22.204z"/>
				<polygon id="XMLID_333_" fill="#9FA0A0" points="22.781,20.428 23.428,25.795 22.136,25.795 				"/>
			</g>
		</g>
	</g>
	<g>
		<g>
			<g>
				<g id="XMLID_234_">
					<path fill="#FB652A" d="M15.06,24.227c0,0-3.469-0.955-4.313-5.169c-0.471-2.348-0.858-3.322-0.858-3.322
						s1.092,0.151,1.43,1.354c0,0,0.063-1.918,1.002-3.538c0.941-1.619,0.129-2.546,0.129-2.546s1.601,0.233,2.152,2.58
						c0,0-0.173-3.182,1.525-4.673c0,0-0.129,1.383,2.202,4.986c2.335,3.604,1.267,4.78,1.267,4.78s0.946-0.528,1.072-1.352
						C20.667,17.326,20.932,22.759,15.06,24.227z"/>
				</g>
				<path id="XMLID_233_" fill="#EA5514" d="M19.13,18.658c0,0,0.112-2.021-1.489-4.525"/>
				<path id="XMLID_220_" fill="#EA5514" d="M14.672,22.754c0,0-1.194-1.32-1.229-4.034c-0.021-1.773,0.741-4.033,0.471-4.842"/>
				<path id="XMLID_219_" fill="#EA5514" d="M15.643,19.624c0,0,0.758-0.874,0.741-2.633"/>
			</g>
		</g>
		<g>
			<defs>
				<rect id="SVGID_7_" y="4.659" width="31.476" height="21.214"/>
			</defs>
			<clipPath id="SVGID_2_">
				<use xlink:href="#SVGID_7_"  overflow="visible"/>
			</clipPath>
			<g clip-path="url(#SVGID_2_)">
				<g>
					<g>
						<polygon fill="#F8B62D" points="23.56,29.568 8.358,21.595 8.355,21.598 8.521,22.091 7.871,22.059 8.172,22.538 
							7.705,22.606 7.896,23.104 7.555,23.121 7.554,23.12 7.555,23.127 22.758,31.099 						"/>
						<path fill="#F8B62D" d="M23.551,29.57l-1.906-0.969l-1.907-0.983l-3.807-1.981l-1.898-1.001l-1.892-1.012
							c-1.262-0.675-2.525-1.345-3.794-2.007l0.022-0.001l-0.002,0.001l0.009-0.026l0.169,0.493
							c0.004,0.013-0.004,0.026-0.015,0.031c-0.004,0.001-0.006,0.001-0.01,0.001l-0.65-0.029l0.024-0.042L8.2,22.52
							c0.009,0.016,0.005,0.036-0.009,0.044c-0.004,0.002-0.009,0.004-0.013,0.004H8.178l-0.467,0.074l0.029-0.049l0.193,0.496
							c0.009,0.021-0.003,0.045-0.023,0.053c-0.004,0.002-0.007,0.003-0.013,0.003l0,0l-0.34,0.02c-0.009,0-0.016-0.001-0.021-0.005
							l0,0l-0.002-0.001l0.063-0.043l0.002,0.007l-0.023-0.035c1.271,0.657,2.543,1.311,3.812,1.974
							c1.268,0.66,2.539,1.32,3.805,1.986l1.898,1l1.896,1.005c1.265,0.669,2.525,1.345,3.785,2.022l-0.036,0.011L23.551,29.57z
							 M23.567,29.571l-0.783,1.541c-0.008,0.013-0.025,0.018-0.037,0.012l0,0l-0.003,0c-1.273-0.652-2.546-1.305-3.815-1.964
							l-1.904-0.988l-1.901-0.994c-1.27-0.661-2.533-1.331-3.798-1.998c-1.266-0.667-2.527-1.342-3.79-2.014H7.534
							c-0.013-0.007-0.022-0.021-0.024-0.035l-0.001-0.007v0c-0.001-0.024,0.018-0.044,0.041-0.048c0.009,0,0.019,0.001,0.025,0.005
							l0.001,0.001l-0.023-0.006l0.342-0.013l-0.037,0.056L7.672,22.62l-0.001,0c-0.006-0.019,0.003-0.041,0.022-0.047
							c0.002-0.001,0.005-0.002,0.008-0.002l0.467-0.065l-0.021,0.05l-0.298-0.483l0,0c-0.009-0.012-0.005-0.029,0.01-0.037
							c0.004-0.003,0.01-0.004,0.015-0.004l0.649,0.036l-0.023,0.032l-0.165-0.495c-0.004-0.01,0-0.021,0.01-0.026l0.003-0.001
							c0.007-0.003,0.016-0.003,0.021-0.001c1.266,0.667,2.536,1.326,3.81,1.979l1.907,0.981l1.903,0.992l3.793,2.004l1.895,1.01
							l1.89,1.021C23.567,29.564,23.568,29.568,23.567,29.571z"/>
					</g>
				</g>
				<g>
					
						<rect x="22.857" y="29.992" transform="matrix(-0.4652 0.8852 -0.8852 -0.4652 61.8709 23.8787)" fill="#FFFFFF" width="1.73" height="1.275"/>
					<path fill="#231815" d="M23.882,31.681c0.106-0.267,0.229-0.526,0.354-0.783c0.064-0.128,0.129-0.257,0.196-0.385
						c0.067-0.128,0.142-0.252,0.216-0.376l0.02,0.064l-0.273-0.163c-0.093-0.055-0.185-0.105-0.279-0.155
						c-0.187-0.101-0.379-0.19-0.572-0.28l0.053-0.016c-0.062,0.13-0.121,0.262-0.183,0.392l-0.191,0.388
						c-0.066,0.127-0.129,0.257-0.195,0.385c-0.067,0.127-0.137,0.253-0.204,0.381l-0.03-0.096c0.093,0.05,0.186,0.103,0.278,0.155
						c0.092,0.052,0.184,0.105,0.275,0.16l0.274,0.163C23.706,31.57,23.794,31.623,23.882,31.681z M23.882,31.697
						c-0.099-0.04-0.194-0.083-0.295-0.125l-0.289-0.132c-0.096-0.045-0.19-0.091-0.287-0.137c-0.095-0.047-0.191-0.093-0.287-0.141
						c-0.035-0.018-0.047-0.06-0.028-0.094l0.001-0.002c0.063-0.128,0.129-0.256,0.195-0.383c0.066-0.128,0.139-0.254,0.207-0.38
						l0.21-0.379c0.071-0.125,0.146-0.249,0.218-0.373l0.003-0.003c0.01-0.017,0.031-0.023,0.05-0.013
						c0.183,0.107,0.367,0.214,0.555,0.31c0.095,0.049,0.189,0.097,0.286,0.141l0.289,0.133c0.022,0.01,0.033,0.037,0.022,0.059
						l-0.002,0.005c-0.06,0.13-0.119,0.262-0.188,0.389c-0.064,0.128-0.135,0.255-0.204,0.381c-0.142,0.252-0.287,0.5-0.445,0.742
						C23.89,31.697,23.885,31.698,23.882,31.697z"/>
				</g>
				<g>
					<g>
						
							<rect x="23.785" y="29.939" transform="matrix(-0.8842 -0.4672 0.4672 -0.8842 30.7458 69.1086)" fill="#FFFFFF" width="0.311" height="1.607"/>
						<path fill="#231815" d="M23.439,31.379c0.099,0.032,0.192,0.07,0.286,0.109l-0.059,0.019c0.052-0.123,0.108-0.245,0.17-0.365
							c0.059-0.12,0.128-0.236,0.2-0.349c0.073-0.113,0.146-0.226,0.209-0.344c0.063-0.119,0.119-0.241,0.172-0.365l0.016,0.053
							c-0.096-0.042-0.19-0.082-0.284-0.127l0.079-0.025c-0.058,0.121-0.114,0.242-0.175,0.362c-0.059,0.12-0.123,0.238-0.188,0.355
							C23.733,30.935,23.597,31.162,23.439,31.379z M23.422,31.379c0.092-0.255,0.201-0.5,0.319-0.742
							c0.058-0.121,0.118-0.239,0.183-0.356c0.065-0.117,0.131-0.234,0.199-0.349l0.002-0.005c0.016-0.027,0.05-0.036,0.079-0.021
							l0,0c0.09,0.052,0.177,0.109,0.265,0.164l0.006,0.003c0.016,0.01,0.021,0.031,0.011,0.048l0,0
							c-0.071,0.114-0.141,0.229-0.201,0.348c-0.063,0.118-0.113,0.243-0.165,0.367c-0.051,0.125-0.107,0.246-0.172,0.364
							c-0.064,0.117-0.131,0.232-0.203,0.347l-0.003,0.006c-0.013,0.019-0.037,0.024-0.056,0.012l0,0
							c-0.088-0.056-0.176-0.113-0.258-0.177C23.422,31.387,23.421,31.382,23.422,31.379z"/>
					</g>
					<g>
						
							<rect x="23.353" y="29.7" transform="matrix(0.8853 0.465 -0.465 0.8853 16.8769 -7.4214)" fill="#FFFFFF" width="0.263" height="1.607"/>
						<path fill="#231815" d="M23.963,29.856c-0.082-0.026-0.162-0.057-0.243-0.09l0.056-0.017
							c-0.052,0.124-0.106,0.246-0.168,0.366c-0.058,0.121-0.123,0.237-0.197,0.35c-0.073,0.112-0.149,0.225-0.211,0.343
							c-0.063,0.118-0.118,0.239-0.171,0.363l-0.018-0.051c0.081,0.035,0.163,0.068,0.243,0.105l-0.078,0.024
							c0.058-0.122,0.115-0.241,0.175-0.362c0.059-0.121,0.121-0.239,0.188-0.356C23.669,30.301,23.806,30.074,23.963,29.856z
							 M23.982,29.856c-0.092,0.256-0.201,0.501-0.32,0.742c-0.057,0.121-0.119,0.239-0.186,0.356
							c-0.063,0.117-0.13,0.233-0.197,0.349l-0.003,0.005c-0.016,0.025-0.05,0.035-0.074,0.02H23.2
							c-0.076-0.045-0.15-0.093-0.226-0.141l-0.004-0.003c-0.016-0.01-0.02-0.032-0.012-0.048l0,0
							c0.073-0.114,0.143-0.229,0.202-0.348c0.063-0.119,0.112-0.244,0.164-0.369c0.05-0.125,0.107-0.245,0.174-0.362
							c0.063-0.117,0.134-0.233,0.206-0.346l0.003-0.005c0.011-0.018,0.034-0.022,0.05-0.012l0,0
							c0.077,0.047,0.147,0.098,0.219,0.151C23.982,29.85,23.982,29.853,23.982,29.856z"/>
					</g>
				</g>
				<g>
					<g>
						<path fill="#231815" d="M23.249,30.064c-0.646-0.31-1.284-0.632-1.922-0.956c-0.637-0.329-1.273-0.652-1.902-0.993
							L18.483,27.6c-0.313-0.172-0.627-0.344-0.943-0.513c-0.631-0.335-1.267-0.66-1.906-0.982c-0.64-0.321-1.279-0.644-1.914-0.973
							c-0.635-0.328-1.271-0.655-1.903-0.989c-1.264-0.67-2.524-1.349-3.771-2.053c-0.003-0.001-0.004-0.005-0.002-0.009
							c0.001-0.003,0.005-0.005,0.009-0.003c1.288,0.625,2.562,1.275,3.833,1.934c0.635,0.331,1.266,0.667,1.896,1.004
							c0.632,0.336,1.26,0.677,1.887,1.021c0.628,0.343,1.257,0.681,1.895,1.01c0.317,0.164,0.636,0.324,0.957,0.484l0.959,0.481
							c0.636,0.323,1.267,0.664,1.897,1c0.63,0.34,1.256,0.683,1.878,1.039c0.004,0.001,0.004,0.006,0.003,0.009
							C23.256,30.064,23.253,30.065,23.249,30.064z"/>
					</g>
					<g>
						<path fill="#231815" d="M22.982,30.573c-0.643-0.307-1.278-0.627-1.913-0.949c-0.632-0.327-1.267-0.648-1.893-0.988
							l-0.938-0.513c-0.309-0.171-0.622-0.343-0.935-0.51c-0.63-0.334-1.263-0.658-1.898-0.978c-0.637-0.319-1.271-0.64-1.902-0.967
							c-0.631-0.326-1.267-0.651-1.895-0.983c-1.258-0.667-2.509-1.341-3.749-2.042c-0.003-0.001-0.004-0.006-0.003-0.01
							c0.002-0.003,0.005-0.005,0.01-0.003c1.278,0.621,2.547,1.268,3.811,1.923c0.631,0.329,1.257,0.664,1.886,0.999
							c0.628,0.333,1.253,0.673,1.878,1.016c0.624,0.341,1.251,0.679,1.884,1.005c0.316,0.164,0.633,0.322,0.952,0.481l0.954,0.478
							c0.635,0.322,1.261,0.662,1.888,0.995c0.627,0.339,1.252,0.68,1.869,1.033c0.004,0.001,0.005,0.006,0.003,0.009
							C22.99,30.573,22.985,30.576,22.982,30.573z"/>
					</g>
				</g>
				<g>
					<g>
						<g>
							<g>
								<polygon fill="#FFCE88" points="6.24,21.46 8.354,21.595 8.521,22.091 7.871,22.059 8.172,22.538 7.705,22.606 
									7.896,23.104 7.555,23.121 								"/>
							</g>
							<path fill="#FFCE88" d="M6.24,21.453c0.177-0.008,0.354-0.007,0.53-0.004c0.178,0.003,0.354,0.009,0.53,0.019
								c0.177,0.007,0.354,0.02,0.529,0.04l0.527,0.062h0.001c0.011,0.002,0.019,0.009,0.023,0.019
								c0.052,0.166,0.105,0.332,0.159,0.497c0.006,0.011-0.001,0.024-0.012,0.028c-0.003,0-0.007,0.001-0.009,0
								c-0.217-0.012-0.433-0.022-0.65-0.032l0.021-0.035c0.103,0.158,0.209,0.313,0.314,0.471c0.012,0.018,0.006,0.041-0.009,0.052
								c-0.005,0.003-0.011,0.006-0.015,0.007H8.179l-0.467,0.082l0.041-0.069c0.069,0.163,0.135,0.328,0.2,0.493
								c0.014,0.032-0.002,0.068-0.035,0.082c-0.005,0.002-0.011,0.003-0.017,0.004H7.898l-0.34,0.022
								c-0.021,0.001-0.043-0.008-0.055-0.024l-0.002-0.001c-0.113-0.136-0.225-0.273-0.333-0.412
								c-0.109-0.14-0.218-0.279-0.323-0.42c-0.104-0.142-0.21-0.284-0.313-0.429c-0.102-0.145-0.202-0.29-0.3-0.438
								c-0.002-0.003,0-0.008,0.002-0.01C6.236,21.453,6.238,21.453,6.24,21.453z M6.257,21.469c0.118,0.124,0.233,0.25,0.346,0.378
								c0.117,0.132,0.234,0.266,0.347,0.401c0.113,0.134,0.225,0.272,0.337,0.41c0.108,0.138,0.217,0.278,0.324,0.418l-0.059-0.025
								l0.341-0.012l-0.057,0.086c-0.06-0.166-0.122-0.333-0.178-0.501l-0.001-0.003c-0.008-0.025,0.006-0.054,0.032-0.063
								c0.003,0,0.006-0.002,0.011-0.002L8.167,22.5l-0.026,0.059c-0.097-0.164-0.189-0.327-0.287-0.488v0
								c-0.01-0.01-0.005-0.024,0.007-0.03c0.004-0.004,0.009-0.005,0.012-0.005c0.218,0.013,0.435,0.025,0.65,0.034l-0.021,0.029
								c-0.056-0.165-0.114-0.329-0.172-0.493l0.024,0.019l-0.531-0.006c-0.176-0.004-0.354-0.014-0.529-0.029
								c-0.175-0.013-0.354-0.031-0.527-0.049C6.597,21.52,6.427,21.498,6.257,21.469z"/>
						</g>
					</g>
				</g>
				<polygon fill="#231815" points="7.232,21.464 6.822,21.444 6.217,21.441 6.791,22.254 6.802,22.267 				"/>
			</g>
			<g clip-path="url(#SVGID_2_)">
				<g>
					<g>
						<polygon fill="#F8B62D" points="8.126,29.274 23.328,21.301 23.33,21.304 23.165,21.797 23.815,21.764 23.513,22.244 
							23.979,22.313 23.791,22.81 24.13,22.826 24.132,22.826 24.132,22.833 8.927,30.806 						"/>
						<path fill="#F8B62D" d="M8.954,30.792L8.916,30.78c1.26-0.677,2.521-1.352,3.783-2.021l1.896-1.006l1.901-0.999
							c1.266-0.668,2.535-1.327,3.802-1.988c1.269-0.662,2.542-1.315,3.812-1.973l-0.023,0.035v-0.006l0.065,0.043l-0.001,0
							l-0.001,0c-0.008,0.003-0.015,0.005-0.022,0.004l-0.339-0.02h-0.001c-0.004,0-0.008-0.001-0.013-0.002
							c-0.021-0.008-0.031-0.032-0.022-0.053l0.193-0.496l0.028,0.049l-0.466-0.074l0,0c-0.006,0-0.01-0.002-0.014-0.004
							c-0.014-0.01-0.02-0.031-0.009-0.044l0.305-0.477l0.025,0.041l-0.651,0.03c-0.003,0-0.006,0-0.008-0.001
							c-0.015-0.004-0.021-0.018-0.017-0.031l0.169-0.493l0.011,0.027l-0.003-0.002l0.021,0.001
							c-1.269,0.663-2.532,1.332-3.793,2.008l-1.893,1.011l-1.897,1.002l-3.807,1.981l-1.908,0.983l-1.906,0.969L8.954,30.792z
							 M8.122,29.268l1.89-1.019l1.891-1.01l3.796-2.005l1.904-0.991l1.906-0.982c1.273-0.653,2.544-1.312,3.809-1.979
							c0.008-0.003,0.015-0.003,0.021,0l0.004,0.002c0.008,0.004,0.014,0.016,0.009,0.026l-0.165,0.494l-0.024-0.031l0.65-0.036
							c0.006,0,0.011,0.001,0.016,0.003c0.013,0.008,0.017,0.024,0.01,0.037l-0.001,0l-0.297,0.482l-0.022-0.049l0.468,0.065
							c0.002,0,0.004,0.001,0.008,0.002c0.019,0.008,0.028,0.029,0.021,0.048v0l-0.185,0.498l-0.036-0.056l0.34,0.014l-0.022,0.005
							l0.002,0c0.007-0.004,0.015-0.006,0.023-0.006c0.023,0.003,0.042,0.024,0.039,0.048v0.001v0.007
							c-0.002,0.014-0.009,0.028-0.022,0.034l0,0c-1.265,0.672-2.525,1.347-3.791,2.014c-1.265,0.668-2.529,1.338-3.799,1.998
							l-1.9,0.995l-1.905,0.988c-1.271,0.659-2.544,1.312-3.815,1.964v0l0,0c-0.015,0.006-0.032,0.001-0.039-0.013l-0.783-1.54
							C8.117,29.274,8.118,29.271,8.122,29.268z"/>
					</g>
				</g>
				<g>
					
						<rect x="7.098" y="29.699" transform="matrix(0.4641 0.8858 -0.8858 0.4641 31.1393 9.204)" fill="#FFFFFF" width="1.73" height="1.273"/>
					<path fill="#231815" d="M8.069,31.22l0.271-0.163c0.093-0.054,0.184-0.107,0.277-0.16c0.091-0.051,0.185-0.104,0.278-0.155
						l-0.031,0.096c-0.069-0.127-0.139-0.252-0.204-0.381c-0.067-0.127-0.13-0.257-0.195-0.386l-0.19-0.387
						c-0.064-0.13-0.124-0.262-0.185-0.393l0.052,0.016c-0.192,0.091-0.385,0.181-0.569,0.281c-0.096,0.05-0.188,0.102-0.28,0.155
						L7.02,29.907l0.021-0.064c0.073,0.125,0.147,0.249,0.214,0.376c0.069,0.127,0.132,0.256,0.197,0.385
						c0.125,0.256,0.246,0.515,0.352,0.782C7.891,31.329,7.98,31.275,8.069,31.22z M7.794,31.4c-0.16-0.241-0.305-0.49-0.447-0.742
						c-0.065-0.126-0.138-0.252-0.204-0.38c-0.065-0.128-0.127-0.259-0.186-0.39l-0.004-0.005c-0.01-0.022,0-0.048,0.022-0.059
						l0.29-0.131c0.098-0.045,0.191-0.092,0.286-0.142c0.189-0.097,0.372-0.203,0.557-0.311c0.018-0.01,0.039-0.004,0.049,0.013
						l0.002,0.003c0.074,0.125,0.147,0.248,0.218,0.374l0.211,0.378c0.069,0.127,0.139,0.252,0.206,0.38
						c0.067,0.127,0.132,0.255,0.197,0.384v0.001c0.019,0.036,0.004,0.078-0.029,0.095c-0.097,0.048-0.191,0.093-0.286,0.14
						c-0.098,0.046-0.192,0.092-0.288,0.136l-0.29,0.133c-0.099,0.042-0.193,0.085-0.295,0.125
						C7.801,31.405,7.796,31.404,7.794,31.4z"/>
				</g>
				<g>
					<g>
						
							<rect x="7.59" y="29.646" transform="matrix(0.8848 -0.4659 0.4659 0.8848 -13.2954 7.1165)" fill="#FFFFFF" width="0.311" height="1.607"/>
						<path fill="#231815" d="M7.821,30.411c-0.066-0.117-0.129-0.235-0.188-0.355s-0.118-0.241-0.176-0.362l0.081,0.025
							c-0.093,0.043-0.191,0.084-0.285,0.125l0.016-0.051c0.054,0.124,0.108,0.245,0.171,0.363c0.063,0.119,0.136,0.232,0.21,0.345
							c0.072,0.112,0.141,0.229,0.199,0.349c0.061,0.119,0.117,0.241,0.171,0.364l-0.059-0.018c0.094-0.039,0.188-0.077,0.285-0.11
							C8.089,30.869,7.952,30.642,7.821,30.411z M8.26,31.096c-0.082,0.063-0.171,0.121-0.259,0.176l-0.001,0
							c-0.018,0.012-0.042,0.006-0.054-0.012l-0.003-0.006c-0.072-0.114-0.141-0.23-0.203-0.347
							c-0.066-0.117-0.123-0.238-0.173-0.363c-0.052-0.124-0.103-0.249-0.164-0.367c-0.063-0.119-0.132-0.235-0.202-0.348l0,0
							c-0.012-0.017-0.006-0.039,0.01-0.049l0.005-0.003c0.088-0.056,0.177-0.111,0.268-0.164l0,0
							c0.025-0.016,0.061-0.006,0.076,0.021l0.002,0.004c0.068,0.116,0.136,0.233,0.2,0.35c0.065,0.117,0.126,0.237,0.185,0.357
							c0.117,0.242,0.226,0.487,0.317,0.742C8.264,31.088,8.264,31.094,8.26,31.096z"/>
					</g>
					<g>
						
							<rect x="8.071" y="29.406" transform="matrix(-0.8869 0.4619 -0.4619 -0.8869 29.4327 53.2145)" fill="#FFFFFF" width="0.264" height="1.607"/>
						<path fill="#231815" d="M8.149,30.238c0.064,0.117,0.128,0.235,0.186,0.355c0.061,0.121,0.119,0.241,0.175,0.363l-0.078-0.025
							c0.08-0.036,0.161-0.07,0.243-0.104l-0.017,0.051c-0.053-0.124-0.108-0.246-0.171-0.363c-0.063-0.119-0.138-0.23-0.211-0.344
							c-0.074-0.112-0.14-0.229-0.199-0.35c-0.06-0.119-0.115-0.242-0.168-0.365l0.055,0.016c-0.079,0.033-0.16,0.064-0.242,0.092
							C7.879,29.779,8.018,30.007,8.149,30.238z M7.709,29.554c0.071-0.054,0.145-0.105,0.217-0.152l0,0
							c0.019-0.011,0.04-0.006,0.053,0.01l0.003,0.006c0.073,0.113,0.142,0.229,0.204,0.347c0.066,0.115,0.127,0.236,0.177,0.361
							c0.051,0.125,0.101,0.25,0.162,0.369c0.062,0.118,0.128,0.234,0.202,0.347l0,0c0.009,0.016,0.006,0.039-0.011,0.049
							l-0.007,0.003c-0.074,0.046-0.147,0.095-0.225,0.141l0,0c-0.025,0.015-0.06,0.005-0.074-0.021l-0.003-0.004
							c-0.068-0.117-0.133-0.233-0.2-0.349c-0.065-0.118-0.127-0.237-0.184-0.357c-0.117-0.242-0.228-0.487-0.318-0.741
							C7.705,29.56,7.705,29.555,7.709,29.554z"/>
					</g>
				</g>
				<g>
					<g>
						<path fill="#231815" d="M8.438,29.77c0.646-0.309,1.283-0.63,1.921-0.955c0.636-0.328,1.273-0.652,1.904-0.993l0.94-0.515
							c0.313-0.172,0.627-0.345,0.941-0.512c0.631-0.337,1.269-0.662,1.908-0.983s1.277-0.644,1.914-0.972
							c0.634-0.329,1.271-0.655,1.902-0.99c1.265-0.67,2.522-1.349,3.771-2.052c0.002-0.001,0.003-0.006,0.002-0.009
							c-0.002-0.004-0.006-0.005-0.009-0.003c-1.286,0.625-2.563,1.276-3.831,1.933c-0.636,0.331-1.266,0.668-1.897,1.004
							c-0.631,0.336-1.26,0.677-1.888,1.021c-0.628,0.343-1.258,0.682-1.894,1.01c-0.316,0.164-0.637,0.325-0.956,0.484l-0.96,0.481
							c-0.638,0.323-1.267,0.665-1.897,1c-0.63,0.34-1.259,0.684-1.879,1.039c-0.004,0.001-0.005,0.005-0.004,0.01
							C8.429,29.77,8.434,29.772,8.438,29.77z"/>
					</g>
					<g>
						<path fill="#231815" d="M8.703,30.28c0.643-0.307,1.279-0.627,1.912-0.95c0.634-0.326,1.268-0.648,1.895-0.987l0.935-0.512
							c0.313-0.172,0.623-0.343,0.938-0.511c0.628-0.334,1.261-0.658,1.896-0.977c0.638-0.319,1.271-0.641,1.903-0.968
							c0.633-0.326,1.265-0.651,1.894-0.983c1.259-0.667,2.511-1.342,3.75-2.042c0.003-0.001,0.004-0.005,0.002-0.01
							c-0.001-0.003-0.005-0.004-0.008-0.002c-1.281,0.622-2.549,1.268-3.812,1.923c-0.632,0.329-1.26,0.664-1.888,0.999
							c-0.628,0.334-1.252,0.673-1.876,1.015c-0.626,0.341-1.251,0.679-1.884,1.005c-0.315,0.163-0.634,0.322-0.952,0.481
							l-0.954,0.479c-0.636,0.32-1.261,0.661-1.89,0.995c-0.625,0.338-1.25,0.68-1.867,1.032c-0.004,0.002-0.005,0.007-0.003,0.01
							C8.697,30.281,8.701,30.282,8.703,30.28z"/>
					</g>
				</g>
				<g>
					<path fill="#FFFFFF" d="M7.801,31.397l-0.923,0.485c-0.131,0.068-0.291,0.017-0.36-0.113l-0.556-1.06
						c-0.069-0.131-0.019-0.293,0.111-0.36l0.924-0.485L7.801,31.397z"/>
					<path fill="#231815" d="M7.565,31.033c-0.074-0.124-0.149-0.248-0.221-0.374s-0.143-0.251-0.211-0.378
						c-0.071-0.126-0.137-0.254-0.203-0.382l0.101,0.031c-0.307,0.153-0.612,0.312-0.925,0.454
						c-0.069,0.028-0.122,0.087-0.139,0.162c-0.007,0.037-0.007,0.077,0.003,0.114c0.01,0.034,0.033,0.075,0.051,0.112
						c0.075,0.154,0.155,0.307,0.241,0.455l0.265,0.443c0.022,0.037,0.043,0.079,0.062,0.102c0.021,0.026,0.049,0.045,0.078,0.06
						c0.03,0.015,0.063,0.02,0.097,0.019c0.018,0,0.034-0.002,0.047-0.008c0.009-0.001,0.018-0.005,0.024-0.008
						c0.003,0,0.007-0.003,0.012-0.005l0.015-0.006c0.303-0.154,0.609-0.301,0.929-0.428C7.712,31.275,7.637,31.155,7.565,31.033z
						 M7.803,31.404c-0.286,0.191-0.585,0.362-0.885,0.526L6.9,31.938l-0.016,0.009c-0.012,0.005-0.023,0.009-0.038,0.014
						c-0.024,0.008-0.049,0.013-0.077,0.014c-0.054,0.003-0.107-0.009-0.154-0.031c-0.049-0.021-0.091-0.057-0.12-0.1
						c-0.034-0.046-0.045-0.084-0.064-0.123l-0.215-0.469c-0.073-0.155-0.152-0.307-0.236-0.457l-0.032-0.057
						c-0.009-0.017-0.022-0.039-0.03-0.062c-0.017-0.044-0.021-0.093-0.016-0.141c0.01-0.095,0.075-0.188,0.163-0.233
						c0.293-0.176,0.598-0.337,0.896-0.503c0.003,0,0.004-0.001,0.004-0.001c0.036-0.019,0.079-0.004,0.097,0.031v0.002
						c0.07,0.127,0.136,0.254,0.2,0.384c0.066,0.128,0.127,0.259,0.19,0.389c0.063,0.129,0.123,0.261,0.183,0.392
						c0.061,0.132,0.116,0.265,0.171,0.398C7.807,31.397,7.806,31.401,7.803,31.404z"/>
				</g>
				<g>
					<g>
						<g>
							<g>
								<polygon fill="#FFCE88" points="25.446,21.167 23.33,21.301 23.165,21.797 23.815,21.764 23.513,22.244 23.979,22.313 
									23.791,22.81 24.13,22.826 								"/>
							</g>
							<path fill="#FFCE88" d="M25.449,21.16c0.004,0.002,0.005,0.008,0.003,0.011c-0.098,0.148-0.198,0.293-0.3,0.438
								c-0.103,0.145-0.207,0.288-0.313,0.429c-0.103,0.142-0.213,0.282-0.32,0.421c-0.108,0.139-0.222,0.275-0.335,0.412v0.002
								c-0.014,0.016-0.034,0.026-0.057,0.024l-0.339-0.023h-0.002c-0.006,0-0.014-0.001-0.02-0.003
								c-0.032-0.013-0.049-0.049-0.034-0.082c0.065-0.166,0.132-0.33,0.2-0.493l0.04,0.068l-0.466-0.082l-0.003,0
								c-0.003-0.001-0.009-0.003-0.013-0.005c-0.018-0.012-0.021-0.036-0.01-0.051c0.105-0.157,0.211-0.313,0.313-0.472
								l0.021,0.035c-0.218,0.01-0.436,0.019-0.651,0.033c-0.003,0-0.005,0-0.008-0.001c-0.012-0.005-0.019-0.017-0.015-0.028
								c0.057-0.165,0.108-0.331,0.163-0.497c0.003-0.01,0.012-0.017,0.021-0.019l0.002,0l0.527-0.061
								c0.175-0.02,0.353-0.033,0.528-0.041c0.177-0.009,0.354-0.015,0.529-0.018c0.177-0.003,0.355-0.003,0.532,0.003
								C25.446,21.159,25.447,21.159,25.449,21.16z M24.921,21.245c-0.176,0.019-0.351,0.036-0.527,0.05s-0.353,0.024-0.53,0.028
								l-0.53,0.006l0.024-0.019c-0.06,0.164-0.116,0.329-0.173,0.494l-0.022-0.029c0.218-0.009,0.435-0.021,0.65-0.034
								c0.006,0,0.01,0,0.014,0.003c0.012,0.006,0.014,0.02,0.009,0.031l0,0c-0.1,0.161-0.194,0.325-0.288,0.487l-0.029-0.058
								l0.47,0.056c0.003,0,0.008,0.001,0.01,0.003c0.026,0.008,0.042,0.036,0.032,0.063l-0.002,0.003
								c-0.058,0.168-0.116,0.335-0.176,0.501l-0.059-0.086l0.341,0.012l-0.057,0.026c0.106-0.141,0.213-0.281,0.323-0.42
								c0.111-0.137,0.223-0.274,0.338-0.409c0.113-0.135,0.227-0.269,0.344-0.4c0.114-0.128,0.229-0.255,0.347-0.379
								C25.259,21.204,25.09,21.226,24.921,21.245z"/>
						</g>
					</g>
				</g>
				<polygon fill="#231815" points="24.453,21.171 24.864,21.15 25.471,21.148 24.896,21.96 24.884,21.974 				"/>
			</g>
		</g>
	</g>
	<path id="XMLID_107_" fill="#F8B62D" d="M9.421,9.672c0.095-0.179,0.13-0.41,0.13-0.41s0.037,0.23,0.133,0.41
		c0.216,0.142,0.465,0.192,0.465,0.192s-0.257,0.052-0.474,0.198c-0.089,0.177-0.124,0.392-0.124,0.392s-0.032-0.215-0.119-0.392
		C9.215,9.917,8.957,9.864,8.957,9.864S9.207,9.814,9.421,9.672z"/>
	<path id="XMLID_106_" fill="#F8B62D" d="M23.085,14.317c0.094-0.18,0.131-0.41,0.131-0.41s0.037,0.23,0.132,0.41
		c0.215,0.141,0.465,0.191,0.465,0.191s-0.258,0.052-0.475,0.198c-0.087,0.176-0.122,0.391-0.122,0.391s-0.033-0.215-0.122-0.391
		c-0.214-0.146-0.473-0.198-0.473-0.198S22.871,14.458,23.085,14.317z"/>
	<path id="XMLID_105_" fill="#F8B62D" d="M4.705,19.216c0.203-0.389,0.281-0.888,0.281-0.888s0.079,0.499,0.287,0.888
		c0.463,0.306,1.006,0.414,1.006,0.414s-0.56,0.114-1.028,0.429c-0.189,0.382-0.265,0.847-0.265,0.847s-0.07-0.464-0.26-0.847
		c-0.47-0.315-1.028-0.429-1.028-0.429S4.242,19.521,4.705,19.216z"/>
	<path id="XMLID_104_" fill="#F8B62D" d="M26.663,18.348c-0.205-0.389-0.282-0.888-0.282-0.888s-0.078,0.499-0.284,0.888
		c-0.465,0.305-1.007,0.415-1.007,0.415s0.56,0.112,1.027,0.428c0.19,0.382,0.264,0.846,0.264,0.846s0.073-0.464,0.262-0.846
		c0.469-0.316,1.029-0.428,1.029-0.428S27.128,18.653,26.663,18.348z"/>
	<g id="XMLID_95_">
		<polygon id="XMLID_103_" fill="#2EA7E0" points="6.106,25.81 3.908,22.695 1.711,25.81 3.673,25.81 3.913,24.373 4.137,25.81 		
			"/>
		<g id="XMLID_96_">
			<line id="XMLID_102_" fill="#2EA7E0" x1="3.913" y1="22.869" x2="1.093" y2="25.922"/>
			<line id="XMLID_97_" fill="#2EA7E0" x1="3.904" y1="22.869" x2="6.827" y2="25.983"/>
		</g>
	</g>
	<g id="XMLID_84_">
		<polygon id="XMLID_94_" fill="#2EA7E0" points="28.701,25.797 26.501,22.583 24.304,25.797 26.266,25.797 26.506,24.261 
			26.73,25.797 		"/>
		<g id="XMLID_85_">
			<line id="XMLID_87_" fill="#2EA7E0" x1="26.506" y1="22.757" x2="23.686" y2="25.81"/>
			<line id="XMLID_86_" fill="#2EA7E0" x1="26.496" y1="22.757" x2="29.418" y2="25.871"/>
		</g>
	</g>
</g>
</svg>
